<?xml version="1.0" encoding="utf-8"?>
<!-- Generator: Adobe Illustrator 19.0.0, SVG Export Plug-In . SVG Version: 6.00 Build 0)  -->
<svg version="1.1" id="Layer_1" xmlns="http://www.w3.org/2000/svg" xmlns:xlink="http://www.w3.org/1999/xlink" x="0px" y="0px"
	 viewBox="0 0 360.7 176" style="enable-background:new 0 0 360.7 176;" xml:space="preserve">
<style type="text/css">
	.st0{fill:#FFFFFF;}
</style>
<g id="XMLID_1_">
	<g>
		
			<ellipse id="XMLID_54_" transform="matrix(-0.9105 -0.4134 0.4134 -0.9105 352.6682 191.5624)" class="st0" cx="197.1" cy="57.6" rx="5.9" ry="9.2"/>
		
			<ellipse id="XMLID_53_" transform="matrix(0.876 -0.4824 0.4824 0.876 -17.8616 69.1687)" class="st0" cx="125.6" cy="69.3" rx="5.9" ry="9.2"/>
		<g>
			<path id="XMLID_52_" class="st0" d="M184.5,77.1c2.4-14,7.2-36.3-5-77.1c0,0,0.3,18.7-1.3,41.3c0.6-1.3,1.3-2.6,2-4l1.9-3.8
				l0,4.3c-0.1,23.7-2.5,44.4-5.8,61.7c7.6-8.7,20.4-19.1,41.8-28.2C211.7,68.4,195.8,68.9,184.5,77.1z"/>
			
				<ellipse id="XMLID_51_" transform="matrix(0.1221 0.9925 -0.9925 0.1221 206.4616 -99.9851)" class="st0" cx="159.8" cy="66.7" rx="8.4" ry="5.9"/>
		</g>
		<path id="XMLID_50_" class="st0" d="M137,63.9l-1-1.9l2.1,0.4c2.6,0.6,5,1.6,7.2,3c-5-28-6.7-55-6.7-55c-9,41.6-2.6,63.5,0.9,77.3
			c-11.8-7.3-27.8-6.6-34-3.2c28.2,9.5,42.6,22.3,49.6,31.3C146,81.4,137.1,64.2,137,63.9z"/>
		<g>
			<path id="XMLID_49_" class="st0" d="M137.9,63.5c0,0,14,26.7,25.1,81.3c5.9-15.9,17.8-53.8,18.1-107
				c-6.8,13.5-11.3,25.1-17.3,49.4C156.8,78.1,149.2,65.9,137.9,63.5z"/>
			
				<ellipse id="XMLID_48_" transform="matrix(-0.9925 0.1223 -0.1223 -0.9925 326.4616 113.4112)" class="st0" cx="159.8" cy="66.7" rx="5.9" ry="8.4"/>
		</g>
	</g>
	<g>
		<path class="st0" d="M0.6,144.9V99.5h10v36.3h22.6v9.1H0.6z"/>
		<path class="st0" d="M48.3,145.5c-3.4,0-6.3-0.9-8.5-2.8c-2.3-1.9-3.4-4.5-3.4-7.8v-0.1c0-3.7,1.3-6.4,3.8-8.3
			c2.5-1.9,5.9-2.8,10.2-2.8c2.9,0,5.7,0.5,8.5,1.4v-0.6c0-4.2-2.5-6.4-7.5-6.4c-3,0-6.2,0.6-9.6,1.9l-2.5-7.5
			c4.2-1.9,8.7-2.8,13.5-2.8c5.2,0,9.1,1.3,11.7,3.9c2.5,2.5,3.8,6.2,3.8,11.1v20.2h-9.5v-3.8C56.1,144,52.6,145.5,48.3,145.5z
			 M51.2,138.7c2.3,0,4.1-0.6,5.6-1.7c1.4-1.1,2.1-2.6,2.1-4.4v-1.8c-1.9-0.9-4-1.3-6.3-1.3c-2.1,0-3.8,0.4-5,1.2
			c-1.2,0.8-1.8,2-1.8,3.6v0.1c0,1.3,0.5,2.3,1.5,3.1C48.3,138.3,49.6,138.7,51.2,138.7z"/>
		<path class="st0" d="M72.9,144.9V97.5h9.9v25.2l11.5-12.6h11.8l-13.2,13.7l13.7,21.1H95.1l-8.9-14.3l-3.5,3.7v10.6H72.9z"/>
		<path class="st0" d="M122.5,145.6c-5.3,0-9.6-1.7-13-5c-3.4-3.3-5.1-7.7-5.1-12.9v-0.1c0-5.1,1.6-9.3,4.9-12.8
			c3.2-3.5,7.3-5.3,12.3-5.3c5.5,0,9.7,1.8,12.6,5.4c2.9,3.6,4.3,8.1,4.3,13.4c0,0.5,0,1.4-0.1,2.6h-24.2c0.5,2.2,1.4,3.9,2.9,5.1
			c1.5,1.2,3.3,1.8,5.6,1.8c3.1,0,5.9-1.2,8.4-3.6l5.6,5C133.2,143.5,128.5,145.6,122.5,145.6z M114,124.8h14.8
			c-0.3-2.2-1.1-4-2.4-5.4c-1.3-1.3-2.9-2-5-2c-2,0-3.6,0.7-5,2C115.3,120.7,114.4,122.5,114,124.8z"/>
		<path class="st0" d="M192.2,144.9V99.5H213c5.7,0,10.2,1.5,13.2,4.6c2.6,2.6,3.9,6.1,3.9,10.4v0.1c0,7-3.2,11.6-9.7,14.1
			l11.1,16.2h-11.7l-9.7-14.5h-7.8v14.5H192.2z M202.2,121.5h10.1c2.4,0,4.2-0.6,5.6-1.8c1.4-1.2,2-2.7,2-4.7V115
			c0-2.1-0.7-3.7-2.1-4.8c-1.4-1.1-3.3-1.7-5.8-1.7h-9.9V121.5z"/>
		<path class="st0" d="M234.4,106.3v-8.8h10.4v8.8H234.4z M234.6,144.9v-34.7h9.9v34.7H234.6z"/>
		<path class="st0" d="M262.8,145.5c-4.3,0-8-1.6-11.2-4.8c-3.1-3.2-4.7-7.6-4.7-13.1v-0.1c0-5.5,1.5-9.9,4.6-13.1
			c3.1-3.2,6.8-4.8,11.2-4.8c4.3,0,7.9,1.7,10.8,5.2V97.5h9.9v47.3h-9.9v-5C270.9,143.6,267.3,145.5,262.8,145.5z M259.3,134.5
			c1.6,1.8,3.7,2.7,6,2.7c2.4,0,4.4-0.9,6-2.7c1.6-1.8,2.4-4.1,2.4-6.9v-0.1c0-2.8-0.8-5.1-2.4-6.9c-1.6-1.8-3.6-2.7-6-2.7
			c-2.4,0-4.4,0.9-6,2.7c-1.6,1.8-2.5,4.1-2.5,6.9v0.1C256.9,130.4,257.7,132.7,259.3,134.5z"/>
		<path class="st0" d="M304,155.4c-5.7,0-10.8-1.2-15.4-3.6l3.4-7.4c3.8,2.1,7.7,3.2,11.7,3.2c6.6,0,9.9-3.2,9.9-9.5v-1.7
			c-1.6,1.9-3.2,3.3-5,4.2c-1.8,0.9-3.9,1.4-6.4,1.4c-4.3,0-7.9-1.5-10.9-4.4c-3-2.9-4.5-6.9-4.5-11.8v-0.1c0-5,1.5-8.9,4.5-11.8
			c3-2.9,6.7-4.4,10.9-4.4c4.3,0,8.1,1.7,11.2,5.2v-4.5h9.9V137c0,6.2-1.5,10.7-4.4,13.7C315.8,153.8,310.9,155.4,304,155.4z
			 M299.1,131.6c1.6,1.5,3.6,2.2,6,2.2c2.4,0,4.4-0.8,6.1-2.3c1.6-1.5,2.4-3.4,2.4-5.8v-0.1c0-2.3-0.8-4.3-2.4-5.8
			c-1.6-1.5-3.6-2.3-6.1-2.3c-2.4,0-4.4,0.8-6,2.3c-1.6,1.5-2.4,3.4-2.4,5.8v0.1C296.7,128.2,297.5,130.1,299.1,131.6z"/>
		<path class="st0" d="M344.8,145.6c-5.3,0-9.6-1.7-13-5c-3.4-3.3-5.1-7.7-5.1-12.9v-0.1c0-5.1,1.6-9.3,4.9-12.8
			c3.2-3.5,7.3-5.3,12.3-5.3c5.5,0,9.7,1.8,12.6,5.4c2.9,3.6,4.3,8.1,4.3,13.4c0,0.5,0,1.4-0.1,2.6h-24.2c0.5,2.2,1.4,3.9,2.9,5.1
			c1.5,1.2,3.3,1.8,5.6,1.8c3.1,0,5.9-1.2,8.4-3.6l5.6,5C355.5,143.5,350.7,145.6,344.8,145.6z M336.3,124.8h14.8
			c-0.3-2.2-1.1-4-2.4-5.4c-1.3-1.3-2.9-2-5-2c-2,0-3.6,0.7-5,2C337.5,120.7,336.7,122.5,336.3,124.8z"/>
	</g>
	<g>
		<g id="XMLID_442_">
			<path id="XMLID_495_" class="st0" d="M6.4,165.6c-5,0-5,7.7,0,7.7c1.1,0,1.9-0.3,2.4-0.6l0.3,2.6c-0.8,0.3-1.9,0.5-2.8,0.5
				c-8.5,0-8.5-12.8,0-12.8c0.9,0,1.7,0.2,2.5,0.5l-0.3,2.6C8.1,165.9,7.5,165.6,6.4,165.6z"/>
			<path id="XMLID_492_" class="st0" d="M21,163c8.6,0,8.6,12.9,0,12.9C12.3,175.9,12.3,163,21,163z M21,165.6c-5,0-5,7.8,0,7.8
				C26,173.3,26,165.6,21,165.6z"/>
			<path id="XMLID_490_" class="st0" d="M44.3,163h0.8v12.8h-2.5l0-7l-3.2,3.4l-3.2-3.4v7h-2.5V163h0.8l5,5.5L44.3,163z"/>
			<path id="XMLID_488_" class="st0" d="M62.4,163h0.8v12.8h-2.5l0-7l-3.2,3.4l-3.2-3.4v7h-2.5V163h0.8l5,5.5L62.4,163z"/>
			<path id="XMLID_486_" class="st0" d="M69.8,171.4v-8.2h2.5v8.2c0,2.6,4.1,2.6,4.1,0v-8.2h2.5v8.2
				C78.9,177.4,69.8,177.4,69.8,171.4z"/>
			<path id="XMLID_484_" class="st0" d="M87.9,175.8h-2.5v-12.8h0.7l6.3,7.4v-7.1H95V176h-0.7l-6.4-7.1V175.8z"/>
			<path id="XMLID_482_" class="st0" d="M101.6,175.8v-12.6h2.5v12.6H101.6z"/>
			<path id="XMLID_480_" class="st0" d="M112.8,175.8v-10h-3.1v-2.5h8.8v2.5h-3.1v10H112.8z"/>
			<path id="XMLID_478_" class="st0" d="M127.2,170.1l-4.4-6.9h3.1l2.6,4.3l2.6-4.3h3.1l-4.4,6.9v5.7h-2.5V170.1z"/>
			<path id="XMLID_476_" class="st0" d="M147.8,172.3c1.4,1,3,1.1,3.6,1c0.7-0.1,1.4-0.6,1.3-1.3c-0.1-0.7-0.6-1-1.3-1.3
				c-2-0.7-3.7-1.7-3.7-3.8c0-2.1,1.5-3.7,3.5-3.8c0.6,0,1.5,0,3.1,0.5l-0.3,2.4c-1.4-0.6-2.2-0.5-2.6-0.5c-0.9,0.1-1.3,0.7-1.2,1.4
				c0.1,0.7,0.7,1,1.4,1.3c1.9,0.7,3.6,1.8,3.6,3.8c0,2.1-1.4,3.7-3.8,3.8c-0.7,0.1-2.3,0-4-0.9L147.8,172.3z"/>
			<path id="XMLID_474_" class="st0" d="M161.1,171.4v-8.2h2.5v8.2c0,2.6,4.1,2.6,4.1,0v-8.2h2.5v8.2
				C170.2,177.4,161.1,177.4,161.1,171.4z"/>
			<path id="XMLID_471_" class="st0" d="M176.7,175.8v-12.5h4.9c4.9,0,4.9,7.7,0,7.7h-2.4v4.8H176.7z M181.5,168.5
				c1.7,0,1.7-2.8,0-2.8h-2.2v2.8H181.5z"/>
			<path id="XMLID_468_" class="st0" d="M191.1,175.8v-12.5h4.9c4.9,0,4.9,7.7,0,7.7h-2.4v4.8H191.1z M195.8,168.5
				c1.7,0,1.7-2.8,0-2.8h-2.2v2.8H195.8z"/>
			<path id="XMLID_465_" class="st0" d="M211.5,163c8.6,0,8.6,12.9,0,12.9C202.9,175.9,202.9,163,211.5,163z M211.5,165.6
				c-5,0-5,7.8,0,7.8C216.6,173.3,216.6,165.6,211.5,165.6z"/>
			<path id="XMLID_462_" class="st0" d="M230.4,175.8l-2.5-4.8h-1.2v4.8h-2.5v-12.6h5c4.5,0,4.9,6.3,1.2,7.4l2.9,5.2H230.4z
				 M226.7,168.5h2.2c1.7,0,1.7-2.8,0-2.8h-2.2V168.5z"/>
			<path id="XMLID_460_" class="st0" d="M240.8,175.8v-10h-3.1v-2.5h8.8v2.5h-3.1v10H240.8z"/>
			<path id="XMLID_458_" class="st0" d="M260.6,172.3c1.4,1,3,1.1,3.6,1c0.7-0.1,1.4-0.6,1.3-1.3c-0.1-0.7-0.6-1-1.3-1.3
				c-2-0.7-3.7-1.7-3.7-3.8c0-2.1,1.5-3.7,3.5-3.8c0.6,0,1.5,0,3.1,0.5l-0.3,2.4c-1.4-0.6-2.2-0.5-2.6-0.5c-0.9,0.1-1.3,0.7-1.2,1.4
				c0.1,0.7,0.7,1,1.4,1.3c1.9,0.7,3.6,1.8,3.6,3.8c0,2.1-1.4,3.7-3.8,3.8c-0.7,0.1-2.3,0-4-0.9L260.6,172.3z"/>
			<path id="XMLID_456_" class="st0" d="M274,175.8v-12.6h6.3v2.5h-3.8v2.5h3.3v2.5h-3.3v2.5h4v2.5H274z"/>
			<path id="XMLID_453_" class="st0" d="M292.9,175.8l-2.5-4.8h-1.2v4.8h-2.5v-12.6h5c4.5,0,4.9,6.3,1.2,7.4l2.9,5.2H292.9z
				 M289.2,168.5h2.2c1.7,0,1.7-2.8,0-2.8h-2.2V168.5z"/>
			<path id="XMLID_451_" class="st0" d="M305.1,176l-5.2-12.8h2.9l1.7,4.2l0.9,2.6l0.9-2.5l1.7-4.3h2.9l-5.2,12.8H305.1z"/>
			<path id="XMLID_449_" class="st0" d="M316.2,175.8v-12.6h2.5v12.6H316.2z"/>
			<path id="XMLID_447_" class="st0" d="M331.1,165.6c-5,0-5,7.7,0,7.7c1.1,0,1.9-0.3,2.4-0.6l0.3,2.6c-0.8,0.3-1.9,0.5-2.8,0.5
				c-8.5,0-8.5-12.8,0-12.8c0.9,0,1.7,0.2,2.5,0.5l-0.3,2.6C332.8,165.9,332.2,165.6,331.1,165.6z"/>
			<path id="XMLID_445_" class="st0" d="M339.7,175.8v-12.6h6.3v2.5h-3.8v2.5h3.3v2.5h-3.3v2.5h4v2.5H339.7z"/>
			<path id="XMLID_443_" class="st0" d="M352.1,172.3c1.4,1,3,1.1,3.6,1c0.7-0.1,1.4-0.6,1.3-1.3c-0.1-0.7-0.6-1-1.3-1.3
				c-2-0.7-3.7-1.7-3.7-3.8c0-2.1,1.5-3.7,3.5-3.8c0.6,0,1.5,0,3.1,0.5l-0.3,2.4c-1.4-0.6-2.2-0.5-2.6-0.5c-0.9,0.1-1.3,0.7-1.2,1.4
				c0.1,0.7,0.7,1,1.4,1.3c1.9,0.7,3.6,1.8,3.6,3.8c0,2.1-1.4,3.7-3.8,3.8c-0.7,0.1-2.3,0-4-0.9L352.1,172.3z"/>
		</g>
	</g>
</g>
</svg>
